<?xml version="1.0" encoding="utf-8"?>
<!-- Generator: Adobe Illustrator 18.1.0, SVG Export Plug-In . SVG Version: 6.00 Build 0)  -->
<!DOCTYPE svg PUBLIC "-//W3C//DTD SVG 1.1//EN" "http://www.w3.org/Graphics/SVG/1.1/DTD/svg11.dtd">
<svg version="1.1" id="Layer_1" xmlns="http://www.w3.org/2000/svg" xmlns:xlink="http://www.w3.org/1999/xlink" x="0px" y="0px"
	 viewBox="0 0 219.8 24.9" enable-background="new 0 0 219.8 24.9" xml:space="preserve">
<g>
	<path fill="#FFFFFF" stroke="#FFFFFF" stroke-width="2" stroke-miterlimit="10" d="M1.3,12.4c0-6.8,5.1-11,11.4-11
		c4.4,0,7.2,2.2,8.8,4.8l-3.8,2c-1-1.5-2.8-2.8-5.1-2.8c-3.9,0-6.7,3-6.7,7s2.8,7,6.7,7c1.9,0,3.7-0.8,4.5-1.6v-2.6h-5.6v-4h10.2
		v8.2c-2.2,2.4-5.2,4-9.1,4C6.4,23.4,1.3,19.1,1.3,12.4z"/>
	<path fill="#FFFFFF" stroke="#FFFFFF" stroke-width="2" stroke-miterlimit="10" d="M36.4,23l-4.2-7.6h-3.3V23h-4.5V1.7h10
		c4.4,0,7.2,2.9,7.2,6.9c0,3.8-2.4,5.8-4.7,6.3l4.8,8.1H36.4z M36.9,8.6c0-1.8-1.4-2.9-3.2-2.9h-4.8v5.8h4.8
		C35.5,11.4,36.9,10.4,36.9,8.6z"/>
	<path fill="#FFFFFF" stroke="#FFFFFF" stroke-width="2" stroke-miterlimit="10" d="M42.9,12.4c0-6.4,4.7-11,11.1-11
		c6.5,0,11.2,4.6,11.2,11s-4.7,11-11.2,11C47.6,23.4,42.9,18.8,42.9,12.4z M60.6,12.4c0-4-2.6-7-6.5-7s-6.5,3-6.5,7c0,4,2.5,7,6.5,7
		S60.6,16.3,60.6,12.4z"/>
	<path fill="#FFFFFF" stroke="#FFFFFF" stroke-width="2" stroke-miterlimit="10" d="M83.1,23L79.4,8.4L75.6,23h-4.8L64.7,1.7h5.1
		l3.7,15.4l4.1-15.4h3.6l4,15.4l3.7-15.4H94L87.9,23H83.1z"/>
	<path fill="#FFFFFF" stroke="#FFFFFF" stroke-width="2" stroke-miterlimit="10" d="M100.1,23V5.7h-6.2v-4h17v4h-6.2V23H100.1z"/>
	<path fill="#FFFFFF" stroke="#FFFFFF" stroke-width="2" stroke-miterlimit="10" d="M128.4,23v-9h-10.1v9h-4.5V1.7h4.5v8.4h10.1V1.7
		h4.6V23H128.4z"/>
	<path fill="#FFFFFF" stroke="#FFFFFF" stroke-width="2" stroke-miterlimit="10" d="M153.5,23l-3.7-14.7L146,23h-4.8l-6.1-21.3h5.1
		l3.7,15.4L148,1.7h3.6l4,15.4l3.7-15.4h5.1L158.3,23H153.5z"/>
	<path fill="#FFFFFF" stroke="#FFFFFF" stroke-width="2" stroke-miterlimit="10" d="M179.2,23l-6.5-8.5l-1.7,2V23h-4.5V1.7h4.5v9.5
		l7.6-9.5h5.6l-8.5,10l9.1,11.3H179.2z"/>
	<path fill="#FFFFFF" stroke="#FFFFFF" stroke-width="2" stroke-miterlimit="10" d="M186.9,23V1.7h4.5V19h9v4H186.9z"/>
	<path fill="#FFFFFF" stroke="#FFFFFF" stroke-width="2" stroke-miterlimit="10" d="M204.5,23v-8.7l-8.2-12.6h5.2l5.3,8.6l5.2-8.6
		h5.2l-8.2,12.6V23H204.5z"/>
</g>
</svg>
